<?xml version="1.0" encoding="UTF-8"?>
<svg id="Layer_1" data-name="Layer 1" xmlns="http://www.w3.org/2000/svg" viewBox="0 0 936 375.47">
  <defs>
    <style>
      .cls-1 {
        stroke-width: 8px;
      }

      .cls-1, .cls-2 {
        fill: #efe9e7;
      }

      .cls-1, .cls-2, .cls-3 {
        stroke: #efe9e7;
        stroke-miterlimit: 10;
      }

      .cls-3 {
        fill: none;
        stroke-width: 22px;
      }
    </style>
  </defs>
  <g>
    <path class="cls-1" d="m151.71,175.48v-17.89h47.17v1.28c0,19.06-5.04,33.76-15.11,44.09-9.04,9.37-21.22,14.06-36.54,14.06s-28.06-4.79-37.3-14.38c-10.17-10.54-15.26-24.23-15.26-41.05s5.03-29.18,15.11-39.62c10.28-10.86,23.79-16.29,40.54-16.29,9.04,0,16.96,1.86,23.74,5.59,7.91,4.15,14.34,10.65,19.27,19.49l-17.42,9.74c-2.78-5.54-6.78-9.74-12.02-12.62-4.32-2.24-9.15-3.35-14.49-3.35-9.66,0-17.57,3.14-23.74,9.42-6.89,6.92-10.33,16.29-10.33,28.12,0,11.18,3.39,20.18,10.17,27,6.06,6.07,13.67,9.11,22.82,9.11,8.02,0,14.75-2.13,20.19-6.39,4.93-3.94,8.17-9.37,9.71-16.29h-26.52Z"/>
    <path class="cls-1" d="m234.34,108.07h20.04v106.55h-20.04v-106.55Z"/>
    <path class="cls-1" d="m314.81,214.62h-20.04v-106.55h13.87l62.59,71.09v-71.09h20.04v106.55h-13.88l-62.59-71.25v71.25Z"/>
    <path class="cls-1" d="m483.77,175.48v-17.89h47.17v1.28c0,19.06-5.04,33.76-15.11,44.09-9.04,9.37-21.22,14.06-36.54,14.06s-28.06-4.79-37.31-14.38c-10.17-10.54-15.26-24.23-15.26-41.05s5.04-29.18,15.11-39.62c10.28-10.86,23.79-16.29,40.54-16.29,9.04,0,16.96,1.86,23.74,5.59,7.91,4.15,14.34,10.65,19.27,19.49l-17.42,9.74c-2.77-5.54-6.78-9.74-12.02-12.62-4.32-2.24-9.15-3.35-14.49-3.35-9.66,0-17.57,3.14-23.74,9.42-6.89,6.92-10.33,16.29-10.33,28.12,0,11.18,3.39,20.18,10.17,27,6.06,6.07,13.67,9.11,22.82,9.11,8.02,0,14.75-2.13,20.19-6.39,4.93-3.94,8.17-9.37,9.71-16.29h-26.51Z"/>
    <path class="cls-1" d="m623.43,108.07v17.89h-37v23.8h35.46v17.89h-35.46v29.07h37v17.89h-57.04v-106.55h57.04Z"/>
    <path class="cls-1" d="m659.81,108.07h29.75c11.3,0,20.04,2.66,26.21,7.99,6.78,5.97,10.17,13.95,10.17,23.96,0,11.18-4.01,19.54-12.02,25.08-3.08,2.24-6.84,3.78-11.25,4.63l32.06,44.89h-24.97l-27.44-42.81h-2.47v42.81h-20.04v-106.55Zm20.04,16.93v32.11h5.7c1.64,0,3.26-.13,4.86-.4,1.59-.27,3.67-.85,6.24-1.76,2.57-.9,4.65-2.56,6.24-4.95,1.59-2.4,2.39-5.4,2.39-9.03s-.77-6.63-2.31-9.03c-1.54-2.4-3.6-4.05-6.17-4.95-2.57-.9-4.62-1.46-6.17-1.68-1.54-.21-3.14-.32-4.78-.32h-6.01Z"/>
    <path class="cls-1" d="m826.3,118.13l-10.48,14.22c-4.42-6.07-10.02-9.11-16.8-9.11-4.93,0-8.53,1.25-10.79,3.75-2.26,2.5-3.39,5.41-3.39,8.71,0,2.88,1.08,5.27,3.24,7.19,1.64,1.6,5.75,3.62,12.33,6.07,10.17,3.62,17.11,7.19,20.81,10.7,5.86,5.43,8.79,12.89,8.79,22.36,0,10.44-3.31,18.88-9.94,25.32-6.63,6.45-15.24,9.66-25.82,9.66-14.8,0-26.62-6.71-35.46-20.13l13.1-12.94c2.26,4.79,5.4,8.36,9.4,10.7,4.01,2.34,8.07,3.51,12.18,3.51,4.62,0,8.43-1.36,11.41-4.07,2.98-2.72,4.47-6.25,4.47-10.62,0-3.73-1.34-6.92-4.01-9.58-2.47-2.34-7.76-4.95-15.88-7.83-7.61-2.66-13.31-5.75-17.11-9.26-5.45-4.9-8.17-11.5-8.17-19.81s2.83-16,8.48-22.12c5.65-6.12,13.82-9.19,24.51-9.19,11.61,0,21.32,4.15,29.14,12.46Z"/>
  </g>
  <g>
    <path class="cls-2" d="m121.75,251.02l-3.08,15.44h15.72l3.08-15.44h10.94l-8.26,41.35h-10.94l3.34-16.74h-15.72l-3.34,16.74h-10.88l8.26-41.35h10.88Z"/>
    <path class="cls-2" d="m206.9,271.73c-1.22,6.12-4.45,11.26-9.68,15.44-5.18,4.09-11.1,6.14-17.76,6.14s-11.77-2.05-15.31-6.14c-3.57-4.17-4.74-9.32-3.52-15.44.57-2.85,1.68-5.64,3.34-8.37,1.65-2.73,3.78-5.1,6.36-7.13,5.18-4.09,11.1-6.14,17.76-6.14s11.77,2.05,15.31,6.14c1.78,2.03,2.95,4.4,3.51,7.13.57,2.73.56,5.52,0,8.37Zm-20.9-11.22c-3.44,0-6.49,1.1-9.14,3.29-2.65,2.15-4.3,4.86-4.95,8.12-.6,3.02,0,5.58,1.8,7.69,1.87,2.19,4.48,3.29,7.83,3.29s6.46-1.08,9.07-3.22c2.71-2.23,4.37-4.88,4.98-7.94.63-3.14.03-5.79-1.81-7.94-1.91-2.19-4.5-3.29-7.77-3.29Z"/>
    <path class="cls-2" d="m250.33,260.13h-8.93l-6.44,32.24h-10.88l6.44-32.24h-8.93l1.82-9.11h28.73l-1.82,9.11Z"/>
    <path class="cls-2" d="m314.52,251.02l-1.82,9.11h-13.14l-1.37,6.88h11.95l-1.82,9.11h-11.95l-3.24,16.24h-10.88l8.26-41.35h24.02Z"/>
    <path class="cls-2" d="m330.43,251.02h16.98c4.44,0,7.61,1.22,9.52,3.66,1.91,2.4,2.49,5.5,1.73,9.3-.73,3.64-2.41,6.51-5.05,8.62-1.84,1.45-3.96,2.4-6.35,2.85l9.76,16.92h-13.52l-7.27-15.87-3.17,15.87h-10.88l8.26-41.35Zm9.22,8.31l-2.04,10.23h2.07c2.35,0,4.22-.56,5.62-1.67,1.1-.91,1.8-2.07,2.08-3.47.29-1.45.04-2.6-.75-3.47-.88-1.07-2.51-1.61-4.9-1.61h-2.07Z"/>
    <path class="cls-2" d="m403.11,251.02l-1.82,9.11h-12.95l-1.37,6.88h12.26l-1.82,9.11h-12.26l-1.42,7.13h12.95l-1.82,9.11h-23.83l8.26-41.35h23.83Z"/>
    <path class="cls-2" d="m410.05,288.65l6.39-8.68c2.46,2.81,5.38,4.21,8.78,4.21,1.93,0,3.43-.47,4.5-1.43.85-.7,1.38-1.57,1.59-2.6.2-.99-.04-1.82-.7-2.48-.56-.58-2.21-1.3-4.97-2.17l-2.66-.87c-2.63-.87-4.42-1.98-5.37-3.35-1.26-1.69-1.56-4.13-.93-7.32.83-4.13,2.77-7.46,5.83-9.98,3.16-2.6,7-3.91,11.53-3.91s8.41,1.12,12.28,3.35l-6.01,8.37c-2.02-1.86-4.22-2.79-6.61-2.79-1.51,0-2.79.41-3.83,1.24-.85.7-1.36,1.45-1.51,2.23-.15.74-.08,1.36.19,1.86.45.7,1.54,1.32,3.28,1.86l3.13.99c3.31,1.07,5.57,2.44,6.79,4.09,1.42,1.9,1.83,4.36,1.23,7.38-.87,4.34-2.88,7.81-6.04,10.42-3.41,2.81-7.82,4.22-13.23,4.22-2.98,0-5.63-.46-7.96-1.36-1.99-.74-3.89-1.84-5.69-3.29Z"/>
    <path class="cls-2" d="m475.66,251.02l-3.08,15.44h15.72l3.08-15.44h10.94l-8.26,41.35h-10.94l3.34-16.74h-15.72l-3.34,16.74h-10.88l8.26-41.35h10.88Z"/>
    <path class="cls-2" d="m574.03,270.67l4.98,5.89c-2.1,2.11-4.4,4.11-6.92,6.01l7.41,9.79h-13.58l-2.89-3.78c-4.99,3.14-9.99,4.71-15.02,4.71-4.49,0-7.69-1.16-9.62-3.47-1.83-2.15-2.42-4.88-1.76-8.18.64-3.22,2.22-5.87,4.73-7.93,2.01-1.7,4.57-3.04,7.66-4.03-.71-1.07-1.31-2.17-1.8-3.29-.65-1.57-.79-3.26-.43-5.08.57-2.85,2.14-5.37,4.72-7.56,2.92-2.44,6.45-3.66,10.6-3.66s7.13,1.14,9.06,3.41c1.79,2.15,2.39,4.73,1.79,7.75-.5,2.52-1.91,4.73-4.22,6.63-1.71,1.41-3.55,2.48-5.55,3.22l4.19,5.46c2.38-1.82,4.59-3.78,6.65-5.89Zm-15.67,11.41l-5.2-7.01c-2.94,1.49-4.58,3.1-4.93,4.84-.23,1.16,0,2.09.7,2.79.72.79,1.84,1.18,3.35,1.18,1.89,0,3.91-.6,6.08-1.8Zm-1.16-21.26c-.16.79.04,1.72.58,2.79.4.74.96,1.57,1.71,2.48.97-.45,1.93-1.07,2.89-1.86,1.08-.99,1.72-2,1.93-3.04.25-1.24.06-2.19-.56-2.85-.59-.62-1.37-.93-2.33-.93s-1.82.29-2.56.87c-.89.66-1.43,1.51-1.64,2.54Z"/>
    <path class="cls-2" d="m616.27,288.65l6.39-8.68c2.46,2.81,5.38,4.21,8.78,4.21,1.93,0,3.43-.47,4.5-1.43.85-.7,1.38-1.57,1.59-2.6.2-.99-.04-1.82-.7-2.48-.56-.58-2.21-1.3-4.97-2.17l-2.66-.87c-2.63-.87-4.42-1.98-5.37-3.35-1.26-1.69-1.56-4.13-.93-7.32.83-4.13,2.77-7.46,5.83-9.98,3.16-2.6,7-3.91,11.53-3.91s8.41,1.12,12.28,3.35l-6.01,8.37c-2.02-1.86-4.22-2.79-6.61-2.79-1.51,0-2.79.41-3.83,1.24-.85.7-1.36,1.45-1.51,2.23-.15.74-.08,1.36.19,1.86.45.7,1.54,1.32,3.28,1.86l3.13.99c3.31,1.07,5.57,2.44,6.79,4.09,1.42,1.9,1.83,4.36,1.23,7.38-.87,4.34-2.88,7.81-6.04,10.42-3.41,2.81-7.82,4.22-13.23,4.22-2.98,0-5.63-.46-7.96-1.36-1.99-.74-3.89-1.84-5.69-3.29Z"/>
    <path class="cls-2" d="m683.21,278.67h-6.85l-2.74,13.7h-10.88l8.26-41.35h17.35c4.48,0,7.78,1.24,9.88,3.72,2.1,2.48,2.73,5.83,1.89,10.04-.89,4.46-2.81,7.89-5.76,10.29-2.95,2.4-6.67,3.6-11.16,3.6Zm-3.06-18.97l-2.06,10.29h3.65c2.1,0,3.71-.43,4.85-1.3,1.08-.79,1.79-2.05,2.14-3.78.33-1.65.16-2.89-.52-3.72-.77-.99-2.22-1.49-4.35-1.49h-3.71Z"/>
    <path class="cls-2" d="m718.1,251.02h10.88l-8.26,41.35h-10.88l8.26-41.35Z"/>
    <path class="cls-2" d="m771.83,278.55l-2.54,12.71c-4.09,1.36-7.37,2.05-9.84,2.05-6.54,0-11.53-2.07-14.98-6.2-1.62-1.98-2.71-4.31-3.29-6.97-.58-2.67-.59-5.36-.05-8.09.57-2.85,1.7-5.62,3.39-8.31,1.69-2.69,3.69-5,6.01-6.94,5.13-4.3,10.84-6.45,17.13-6.45,3.02,0,6.15.7,9.39,2.11l-2.56,12.83c-1.87-3.02-4.74-4.53-8.59-4.53-2.98,0-5.67.91-8.09,2.73-2.88,2.23-4.66,5.06-5.34,8.49-.65,3.27-.06,5.95,1.79,8.06,1.67,1.9,4.08,2.85,7.23,2.85,3.65,0,7.1-1.45,10.36-4.34Z"/>
    <path class="cls-2" d="m795.41,292.37l3.96-19.84-10.86-21.51h13.01l5.67,11.28,9.86-11.28h13.2l-19.95,21.51-3.96,19.84h-10.94Z"/>
  </g>
  <rect class="cls-3" x="11" y="11" width="914" height="353.47" rx="36.88" ry="36.88"/>
</svg>